<svg width="64" height="64" viewBox="0 0 64 64" fill="none" xmlns="http://www.w3.org/2000/svg">
<path d="M32.0009 -0.113037C23.4219 -0.113037 15.3569 3.22696 9.29194 9.29296C3.22594 15.359 -0.11306 23.423 -0.11206 32.001C-0.11206 40.579 3.22794 48.586 9.29194 54.652C15.3569 60.717 23.4209 64 31.9989 64C31.9999 64 32.0009 64 32.0009 64H32.0039C49.7099 64 64.1139 49.649 64.1129 31.943C64.1139 23.365 60.7729 15.329 54.7079 9.26296C48.6439 3.19896 40.5789 -0.113037 32.0009 -0.113037ZM31.9999 62.113V63.113V62C31.9989 62 31.9989 62 31.9979 62C23.9549 62 16.3929 58.924 10.7059 53.238C5.01994 47.55 1.88794 40.017 1.88794 31.973C1.88694 23.929 5.01794 16.381 10.7059 10.693C16.3939 5.00496 23.9559 1.88096 32.0009 1.88096C40.0449 1.88096 47.6059 5.01696 53.2939 10.704C58.9819 16.392 62.1109 23.955 62.1109 31.999C62.1119 48.601 48.9999 62.112 31.9999 62.113Z" fill="#70B446"/>
<path d="M32 9C25.856 9 20.081 11.393 15.737 15.738C11.393 20.082 9 25.857 9 32H11C11 26.392 13.185 21.118 17.151 17.151C21.117 13.185 26.391 11 32 11C37.609 11 42.883 13.185 46.85 17.152C50.815 21.119 53 26.392 53 32H55C55 25.858 52.607 20.082 48.264 15.737C43.921 11.392 38.144 9 32 9Z" fill="#70B446"/>
<path d="M30.7569 32.2929L24.7569 25.3459L23.2429 26.6539L29.3149 33.6859C29.1149 34.0949 28.9979 34.5429 28.9999 35.0129C29.0039 35.8139 29.3179 36.5659 29.8879 37.1299C30.4529 37.6909 31.2039 37.9999 31.9999 37.9999C32.8069 37.9999 33.5619 37.6849 34.1309 37.1119C35.2939 35.9369 35.2859 34.0339 34.1119 32.8699C33.2329 31.9989 31.8569 31.8129 30.7569 32.2929ZM32.7099 35.7039C32.3339 36.0819 31.6749 36.0849 31.2959 35.7099C31.1069 35.5219 31.0009 35.2709 30.9999 35.0039C30.9989 34.7369 31.1019 34.4859 31.2909 34.2959C31.4789 34.1039 31.7309 33.9999 31.9999 33.9999C32.2659 33.9999 32.5159 34.1029 32.7039 34.2909C33.0959 34.6779 33.0979 35.3119 32.7099 35.7039Z" fill="#70B446"/>
</svg>
